<?xml version="1.0" encoding="UTF-8"?>
<svg id="Layer_1" data-name="Layer 1" xmlns="http://www.w3.org/2000/svg" viewBox="0 0 500 500">
  <defs>
    <style>
      .cls-1 {
        fill: #040404;
      }
    </style>
  </defs>
  <g>
    <path class="cls-1" d="M219.25,367.9H65.02c-3.95,0-8.19-.47-12.74-1.4-4.55-.93-9.04-2.38-13.48-4.36-4.44-1.97-8.69-4.52-12.74-7.65-4.06-3.12-7.65-6.91-10.77-11.35-3.12-4.44-5.62-9.59-7.48-15.46-1.86-5.86-2.8-12.47-2.8-19.81v-115.76c0-3.95.47-8.19,1.4-12.74.93-4.55,2.38-9.04,4.36-13.48,1.97-4.44,4.55-8.69,7.73-12.74,3.18-4.06,6.99-7.65,11.43-10.77,4.44-3.12,9.56-5.62,15.37-7.48,5.81-1.86,12.39-2.8,19.73-2.8h154.23v42.75H65.02c-5.59,0-9.87,1.48-12.83,4.44-2.96,2.96-4.44,7.34-4.44,13.15v115.43c0,5.48,1.51,9.73,4.52,12.74,3.01,3.01,7.26,4.52,12.74,4.52h154.23v42.75Z"/>
    <path class="cls-1" d="M495,269.24c0,14.36-2.49,27.57-7.48,39.63-4.99,12.06-11.87,22.44-20.64,31.16-8.77,8.71-19.18,15.54-31.24,20.47-12.06,4.93-25.16,7.4-39.3,7.4h-115.43c-3.07,0-5.92-.55-8.55-1.64-2.63-1.1-4.91-2.6-6.82-4.52-1.92-1.92-3.43-4.19-4.52-6.82-1.1-2.63-1.64-5.48-1.64-8.55v-192.71c0-2.96.55-5.76,1.64-8.39s2.6-4.93,4.52-6.91c1.92-1.97,4.19-3.51,6.82-4.6,2.63-1.1,5.48-1.64,8.55-1.64h115.43c14.14,0,27.24,2.47,39.3,7.4,12.06,4.93,22.47,11.76,31.24,20.47,8.77,8.71,15.65,19.13,20.64,31.24,4.99,12.11,7.48,25.29,7.48,39.55v38.48ZM452.25,230.76c0-8.33-1.34-15.95-4.03-22.86-2.69-6.91-6.49-12.8-11.43-17.68-4.93-4.88-10.82-8.66-17.68-11.35-6.85-2.69-14.44-4.03-22.77-4.03h-94.22v150.29h94.22c8.33,0,15.92-1.34,22.77-4.03,6.85-2.69,12.74-6.47,17.68-11.35,4.93-4.88,8.74-10.74,11.43-17.59,2.69-6.85,4.03-14.5,4.03-22.94v-38.48Z"/>
  </g>
  <path class="cls-1" d="M160.21,264.67h-7.33v7.33c0,8.1-6.57,14.67-14.67,14.67s-14.67-6.57-14.67-14.67v-7.33h-7.33c-8.1,0-14.67-6.57-14.67-14.67s6.57-14.67,14.67-14.67h7.33v-7.33c0-8.1,6.57-14.67,14.67-14.67s14.67,6.57,14.67,14.67v7.33h7.33c8.1,0,14.67,6.57,14.67,14.67s-6.57,14.67-14.67,14.67Z"/>
  <rect class="cls-1" x="348.75" y="218.03" width="56.86" height="56.86" transform="translate(-63.8 338.9) rotate(-45)"/>
</svg>