<?xml version="1.0" encoding="UTF-8"?>
<svg id="Layer_1" xmlns="http://www.w3.org/2000/svg" version="1.1" viewBox="0 0 500 500">
  <!-- Generator: Adobe Illustrator 29.5.1, SVG Export Plug-In . SVG Version: 2.1.0 Build 141)  -->
  <defs>
    <style>
      .st0 {
        fill: #fff;
      }
    </style>
  </defs>
  <g>
    <path class="st0" d="M219.2,367.9H65c-4,0-8.2-.5-12.7-1.4s-9-2.4-13.5-4.4c-4.4-2-8.7-4.5-12.7-7.6-4.1-3.1-7.6-6.9-10.8-11.4-3.1-4.4-5.6-9.6-7.5-15.5-1.9-5.9-2.8-12.5-2.8-19.8v-115.8c0-3.9.5-8.2,1.4-12.7.9-4.6,2.4-9,4.4-13.5,2-4.4,4.6-8.7,7.7-12.7,3.2-4.1,7-7.6,11.4-10.8,4.4-3.1,9.6-5.6,15.4-7.5,5.8-1.9,12.4-2.8,19.7-2.8h154.2v42.8H65c-5.6,0-9.9,1.5-12.8,4.4-3,3-4.4,7.3-4.4,13.1v115.4c0,5.5,1.5,9.7,4.5,12.7,3,3,7.3,4.5,12.7,4.5h154.2v42.8h0Z"/>
    <path class="st0" d="M495,269.2c0,14.4-2.5,27.6-7.5,39.6-5,12.1-11.9,22.4-20.6,31.2-8.8,8.7-19.2,15.5-31.2,20.5s-25.2,7.4-39.3,7.4h-115.4c-3.1,0-5.9-.5-8.5-1.6-2.6-1.1-4.9-2.6-6.8-4.5-1.9-1.9-3.4-4.2-4.5-6.8-1.1-2.6-1.6-5.5-1.6-8.5v-192.7c0-3,.5-5.8,1.6-8.4s2.6-4.9,4.5-6.9c1.9-2,4.2-3.5,6.8-4.6,2.6-1.1,5.5-1.6,8.5-1.6h115.4c14.1,0,27.2,2.5,39.3,7.4s22.5,11.8,31.2,20.5,15.6,19.1,20.6,31.2c5,12.1,7.5,25.3,7.5,39.6v38.5h0ZM452.2,230.8c0-8.3-1.3-15.9-4-22.9s-6.5-12.8-11.4-17.7c-4.9-4.9-10.8-8.7-17.7-11.4-6.9-2.7-14.4-4-22.8-4h-94.2v150.3h94.2c8.3,0,15.9-1.3,22.8-4,6.9-2.7,12.7-6.5,17.7-11.4,4.9-4.9,8.7-10.7,11.4-17.6s4-14.5,4-22.9v-38.5h0Z"/>
  </g>
  <path class="st0" d="M160.2,264.7h-7.3v7.3c0,8.1-6.6,14.7-14.7,14.7s-14.7-6.6-14.7-14.7v-7.3h-7.3c-8.1,0-14.7-6.6-14.7-14.7s6.6-14.7,14.7-14.7h7.3v-7.3c0-8.1,6.6-14.7,14.7-14.7s14.7,6.6,14.7,14.7v7.3h7.3c8.1,0,14.7,6.6,14.7,14.7s-6.6,14.7-14.7,14.7Z"/>
  <rect class="st0" x="348.8" y="218" width="56.9" height="56.9" transform="translate(-63.8 338.9) rotate(-45)"/>
</svg>