<?xml version="1.0" encoding="UTF-8"?><svg id="Layer_1" xmlns="http://www.w3.org/2000/svg" viewBox="0 0 500 500"><path d="M182.39,267.24h-22.55c-.58,0-1.2-.07-1.86-.2-.67-.14-1.32-.35-1.97-.64s-1.27-.66-1.86-1.12c-.59-.46-1.12-1.01-1.57-1.66-.46-.65-.82-1.4-1.09-2.26s-.41-1.82-.41-2.9v-16.92c0-.58.07-1.2.2-1.86.14-.66.35-1.32.64-1.97.29-.65.67-1.27,1.13-1.86.46-.59,1.02-1.12,1.67-1.57.65-.46,1.4-.82,2.25-1.09.85-.27,1.81-.41,2.88-.41h22.55v6.25h-22.55c-.82,0-1.44.22-1.87.65s-.65,1.07-.65,1.92v16.88c0,.8.22,1.42.66,1.86.44.44,1.06.66,1.86.66h22.55v6.25Z" style="fill:#377bf5;"/><path d="M222.12,267.24h-6.25v-8.46h-21.97v8.46h-6.25v-17.24c0-2.52.43-4.83,1.3-6.95.87-2.12,2.07-3.93,3.61-5.46,1.54-1.52,3.36-2.71,5.46-3.56,2.1-.85,4.39-1.27,6.87-1.27h14.09c.43,0,.84.08,1.23.24.38.16.72.38,1.01.67s.51.62.67,1.01.24.79.24,1.23v31.32ZM193.9,252.52h21.97v-13.51h-10.99c-.19,0-.6.03-1.21.08-.62.06-1.33.2-2.14.42-.81.22-1.66.57-2.56,1.03-.9.46-1.72,1.11-2.48,1.92s-1.37,1.84-1.86,3.06c-.49,1.23-.73,2.71-.73,4.46v2.52Z" style="fill:#377bf5;"/><path d="M262.51,257.09c0,1.23-.16,2.34-.47,3.33-.31.99-.73,1.86-1.24,2.61-.51.75-1.11,1.39-1.8,1.92-.69.53-1.4.96-2.14,1.3s-1.49.59-2.25.75c-.76.16-1.48.24-2.15.24h-24.11v-6.25h24.11c1.2,0,2.14-.35,2.8-1.06.66-.71,1-1.65,1-2.84,0-.58-.09-1.11-.26-1.59s-.43-.9-.76-1.25c-.33-.35-.73-.63-1.2-.82s-1-.29-1.57-.29h-14.37c-1.01,0-2.1-.18-3.27-.54-1.17-.36-2.26-.94-3.26-1.74-1-.8-1.84-1.85-2.5-3.15-.67-1.3-1-2.88-1-4.76s.33-3.46,1-4.75c.67-1.29,1.5-2.34,2.5-3.15,1-.81,2.09-1.39,3.26-1.75,1.17-.36,2.26-.54,3.27-.54h21.27v6.25h-21.27c-1.19,0-2.11.36-2.78,1.08s-1,1.67-1,2.86.33,2.15,1,2.85c.67.7,1.59,1.05,2.78,1.05h14.42c.67.02,1.39.11,2.14.28.75.17,1.5.43,2.25.78s1.45.8,2.13,1.33c.67.54,1.27,1.18,1.79,1.94s.93,1.62,1.24,2.6c.3.98.46,2.08.46,3.32Z" style="fill:#377bf5;"/><path d="M274,246.85h21.95v-14.09h6.25v34.47h-6.25v-14.09h-21.95v14.09h-6.25v-34.47h6.25v14.09Z" style="fill:#377bf5;"/><path d="M343.9,252.81c0,2.1-.36,4.03-1.09,5.79-.73,1.76-1.73,3.28-3.02,4.56-1.28,1.27-2.8,2.27-4.57,2.99-1.76.72-3.68,1.08-5.74,1.08h-16.88c-.45,0-.87-.08-1.25-.24-.38-.16-.72-.38-1-.66-.28-.28-.5-.61-.66-1s-.24-.8-.24-1.25v-28.17c0-.43.08-.84.24-1.23s.38-.72.66-1.01.61-.51,1-.67c.38-.16.8-.24,1.25-.24h16.88c2.07,0,3.98.36,5.74,1.08s3.29,1.72,4.57,2.99c1.28,1.27,2.29,2.8,3.02,4.57.73,1.77,1.09,3.7,1.09,5.78v5.63ZM337.65,247.19c0-1.22-.2-2.33-.59-3.34-.39-1.01-.95-1.87-1.67-2.58-.72-.71-1.58-1.27-2.58-1.66-1-.39-2.11-.59-3.33-.59h-13.77v21.97h13.77c1.22,0,2.33-.2,3.33-.59,1-.39,1.86-.95,2.58-1.66.72-.71,1.28-1.57,1.67-2.57.39-1,.59-2.12.59-3.35v-5.63Z" style="fill:#377bf5;"/><path d="M384.48,244.35c0,1.43-.18,2.7-.53,3.82s-.83,2.11-1.43,2.97c-.6.86-1.29,1.59-2.08,2.2-.79.61-1.61,1.11-2.46,1.5-.86.39-1.72.68-2.6.85-.87.18-1.7.26-2.46.26l13.05,11.27h-9.66l-13.03-11.27h-4.5v-6.25h14.13c.78-.06,1.5-.23,2.15-.49.65-.26,1.21-.62,1.68-1.07s.84-.99,1.09-1.62.38-1.36.38-2.18v-3.94c0-.35-.04-.62-.13-.81-.09-.18-.2-.32-.34-.41-.14-.09-.28-.14-.43-.16-.15-.02-.29-.02-.42-.02h-20.63v28.22h-6.25v-31.32c0-.43.08-.84.24-1.23s.38-.72.66-1.01.61-.51,1-.67c.38-.16.8-.24,1.25-.24h23.73c1.39,0,2.57.25,3.53.76.96.5,1.74,1.14,2.34,1.9.6.76,1.03,1.58,1.3,2.46.26.88.4,1.71.4,2.48v3.99Z" style="fill:#377bf5;"/><path d="M397.05,267.24h-6.25v-34.47h6.25v34.47Z" style="fill:#377bf5;"/><path d="M436.02,267.24h-28.51c-.45,0-.87-.08-1.25-.24-.38-.16-.72-.38-1-.66-.28-.28-.5-.61-.66-1s-.24-.8-.24-1.25v-31.32h6.25v28.22h25.41v6.25Z" style="fill:#377bf5;"/><path d="M472.27,267.24h-28.51c-.45,0-.87-.08-1.25-.24-.38-.16-.72-.38-1-.66-.28-.28-.5-.61-.66-1s-.24-.8-.24-1.25v-31.32h6.25v28.22h25.41v6.25Z" style="fill:#377bf5;"/><path d="M73.06,274.94h-32.63c-.83,0-1.73-.1-2.7-.3-.96-.2-1.91-.5-2.85-.92-.94-.42-1.84-.96-2.7-1.62-.86-.66-1.62-1.46-2.28-2.4-.66-.94-1.19-2.03-1.58-3.27s-.59-2.64-.59-4.19v-24.49c0-.83.1-1.73.3-2.7.2-.96.5-1.91.92-2.85.42-.94.96-1.84,1.64-2.7.67-.86,1.48-1.62,2.42-2.28.94-.66,2.02-1.19,3.25-1.58s2.62-.59,4.17-.59h32.63v9.04h-32.63c-1.18,0-2.09.31-2.71.94s-.94,1.55-.94,2.78v24.42c0,1.16.32,2.06.96,2.7.64.64,1.54.96,2.7.96h32.63v9.04Z" style="fill:#377bf5;"/><path d="M131.4,254.07c0,3.04-.53,5.83-1.58,8.38-1.06,2.55-2.51,4.75-4.37,6.59-1.86,1.84-4.06,3.29-6.61,4.33-2.55,1.04-5.32,1.57-8.31,1.57h-24.42c-.65,0-1.25-.12-1.81-.35s-1.04-.55-1.44-.96-.72-.89-.96-1.44-.35-1.16-.35-1.81v-40.77c0-.63.12-1.22.35-1.77s.55-1.04.96-1.46.89-.74,1.44-.97c.56-.23,1.16-.35,1.81-.35h24.42c2.99,0,5.76.52,8.31,1.57,2.55,1.04,4.75,2.49,6.61,4.33,1.86,1.84,3.31,4.05,4.37,6.61,1.06,2.56,1.58,5.35,1.58,8.37v8.14ZM122.35,245.93c0-1.76-.28-3.37-.85-4.84-.57-1.46-1.37-2.71-2.42-3.74-1.04-1.03-2.29-1.83-3.74-2.4-1.45-.57-3.06-.85-4.82-.85h-19.93v31.8h19.93c1.76,0,3.37-.28,4.82-.85,1.45-.57,2.7-1.37,3.74-2.4,1.04-1.03,1.85-2.27,2.42-3.72s.85-3.07.85-4.85v-8.14Z" style="fill:#377bf5;"/><path d="M60.57,253.1h-1.55v1.55c0,1.71-1.39,3.1-3.1,3.1s-3.1-1.39-3.1-3.1v-1.55h-1.55c-1.71,0-3.1-1.39-3.1-3.1s1.39-3.1,3.1-3.1h1.55v-1.55c0-1.71,1.39-3.1,3.1-3.1s3.1,1.39,3.1,3.1v1.55h1.55c1.71,0,3.1,1.39,3.1,3.1s-1.39,3.1-3.1,3.1Z" style="fill:#377bf5;"/><rect x="100.46" y="243.24" width="12.03" height="12.03" transform="translate(-145.06 148.29) rotate(-45)" style="fill:#377bf5;"/></svg>