<?xml version="1.0" encoding="UTF-8"?>
<svg id="Layer_1" xmlns="http://www.w3.org/2000/svg" version="1.1" viewBox="0 0 500 500">
  <!-- Generator: Adobe Illustrator 29.5.1, SVG Export Plug-In . SVG Version: 2.1.0 Build 141)  -->
  <defs>
    <style>
      .st0 {
        fill: #fff;
      }
    </style>
  </defs>
  <g>
    <path class="st0" d="M52.8,341.7H18.4c-.9,0-1.8-.1-2.8-.3s-2-.5-3-1-1.9-1-2.8-1.7c-.9-.7-1.7-1.5-2.4-2.5-.7-1-1.2-2.1-1.7-3.5s-.6-2.8-.6-4.4v-25.8c0-.9,0-1.8.3-2.8s.5-2,1-3c.4-1,1-1.9,1.7-2.8s1.6-1.7,2.6-2.4c1-.7,2.1-1.2,3.4-1.7s2.8-.6,4.4-.6h34.4v9.5H18.4c-1.2,0-2.2.3-2.9,1s-1,1.6-1,2.9v25.7c0,1.2.3,2.2,1,2.8.7.7,1.6,1,2.8,1h34.4v9.5h0Z"/>
    <path class="st0" d="M113.4,341.7h-9.5v-12.9h-33.5v12.9h-9.5v-26.3c0-3.8.7-7.4,2-10.6,1.3-3.2,3.1-6,5.5-8.3,2.3-2.3,5.1-4.1,8.3-5.4,3.2-1.3,6.7-1.9,10.5-1.9h21.5c.7,0,1.3.1,1.9.4.6.2,1.1.6,1.5,1s.8,1,1,1.5.4,1.2.4,1.9v47.8h0ZM70.3,319.3h33.5v-20.6h-16.8c-.3,0-.9,0-1.8.1-.9,0-2,.3-3.3.6-1.2.3-2.5.9-3.9,1.6s-2.6,1.7-3.8,2.9-2.1,2.8-2.8,4.7c-.8,1.9-1.1,4.1-1.1,6.8v3.9h0Z"/>
    <path class="st0" d="M175,326.2c0,1.9-.2,3.6-.7,5.1s-1.1,2.8-1.9,4c-.8,1.1-1.7,2.1-2.8,2.9-1.1.8-2.1,1.5-3.3,2s-2.3.9-3.4,1.1c-1.2.2-2.3.4-3.3.4h-36.8v-9.5h36.8c1.8,0,3.3-.5,4.3-1.6,1-1.1,1.5-2.5,1.5-4.3s-.1-1.7-.4-2.4-.6-1.4-1.2-1.9c-.5-.5-1.1-1-1.8-1.2s-1.5-.4-2.4-.4h-21.9c-1.5,0-3.2-.3-5-.8-1.8-.5-3.4-1.4-5-2.7s-2.8-2.8-3.8-4.8c-1-2-1.5-4.4-1.5-7.3s.5-5.3,1.5-7.2c1-2,2.3-3.6,3.8-4.8,1.5-1.2,3.2-2.1,5-2.7,1.8-.5,3.4-.8,5-.8h32.4v9.5h-32.4c-1.8,0-3.2.5-4.2,1.6-1,1.1-1.5,2.6-1.5,4.4s.5,3.3,1.5,4.4c1,1.1,2.4,1.6,4.2,1.6h22c1,0,2.1.2,3.3.4,1.1.3,2.3.6,3.4,1.2s2.2,1.2,3.2,2,1.9,1.8,2.7,3,1.4,2.5,1.9,4c.5,1.5.7,3.2.7,5.1h0Z"/>
    <path class="st0" d="M192.5,310.6h33.5v-21.5h9.5v52.6h-9.5v-21.5h-33.5v21.5h-9.5v-52.6h9.5v21.5Z"/>
    <path class="st0" d="M299.2,319.7c0,3.2-.6,6.1-1.7,8.8-1.1,2.7-2.6,5-4.6,7-2,1.9-4.3,3.5-7,4.6s-5.6,1.6-8.8,1.6h-25.7c-.7,0-1.3-.1-1.9-.4-.6-.2-1.1-.6-1.5-1-.4-.4-.8-.9-1-1.5s-.4-1.2-.4-1.9v-43c0-.7.1-1.3.4-1.9s.6-1.1,1-1.5.9-.8,1.5-1c.6-.2,1.2-.4,1.9-.4h25.7c3.1,0,6.1.5,8.8,1.6s5,2.6,7,4.6c2,1.9,3.5,4.3,4.6,7,1.1,2.7,1.7,5.6,1.7,8.8v8.6ZM289.6,311.1c0-1.9-.3-3.6-.9-5.1s-1.5-2.9-2.5-3.9c-1.1-1.1-2.4-1.9-3.9-2.5-1.5-.6-3.2-.9-5.1-.9h-21v33.5h21c1.9,0,3.5-.3,5.1-.9s2.8-1.4,3.9-2.5,2-2.4,2.5-3.9c.6-1.5.9-3.2.9-5.1v-8.6Z"/>
    <path class="st0" d="M361.1,306.8c0,2.2-.3,4.1-.8,5.8s-1.3,3.2-2.2,4.5c-.9,1.3-2,2.4-3.2,3.4s-2.5,1.7-3.8,2.3-2.6,1-4,1.3-2.6.4-3.8.4l19.9,17.2h-14.7l-19.9-17.2h-6.9v-9.5h21.6c1.2-.1,2.3-.4,3.3-.8s1.9-1,2.6-1.6,1.3-1.5,1.7-2.5.6-2.1.6-3.3v-6c0-.5,0-1-.2-1.2-.1-.3-.3-.5-.5-.6-.2-.1-.4-.2-.7-.2-.2,0-.5,0-.6,0h-31.5v43h-9.5v-47.8c0-.7.1-1.3.4-1.9.2-.6.6-1.1,1-1.5s.9-.8,1.5-1c.6-.2,1.2-.4,1.9-.4h36.2c2.1,0,3.9.4,5.4,1.1s2.7,1.7,3.6,2.9c.9,1.2,1.6,2.4,2,3.8.4,1.4.6,2.6.6,3.8v6.1h0Z"/>
    <path class="st0" d="M380.3,341.7h-9.5v-52.6h9.5v52.6Z"/>
    <path class="st0" d="M439.7,341.7h-43.5c-.7,0-1.3-.1-1.9-.4-.6-.2-1.1-.6-1.5-1-.4-.4-.8-.9-1-1.5s-.4-1.2-.4-1.9v-47.8h9.5v43h38.8v9.5h0Z"/>
    <path class="st0" d="M495,341.7h-43.5c-.7,0-1.3-.1-1.9-.4-.6-.2-1.1-.6-1.5-1-.4-.4-.8-.9-1-1.5-.2-.6-.4-1.2-.4-1.9v-47.8h9.5v43h38.8v9.5h0Z"/>
  </g>
  <g>
    <g>
      <path class="st0" d="M238.3,235.1h-50.2c-1.3,0-2.7-.1-4.1-.5-1.5-.3-2.9-.8-4.4-1.4-1.4-.6-2.8-1.5-4.1-2.5-1.3-1-2.5-2.2-3.5-3.7-1-1.4-1.8-3.1-2.4-5s-.9-4.1-.9-6.4v-37.7c0-1.3.1-2.7.5-4.1.3-1.5.8-2.9,1.4-4.4.6-1.4,1.5-2.8,2.5-4.1,1-1.3,2.3-2.5,3.7-3.5,1.4-1,3.1-1.8,5-2.4,1.9-.6,4-.9,6.4-.9h50.2v13.9h-50.2c-1.8,0-3.2.5-4.2,1.4-1,1-1.4,2.4-1.4,4.3v37.6c0,1.8.5,3.2,1.5,4.1s2.4,1.5,4.1,1.5h50.2v13.9h0Z"/>
      <path class="st0" d="M328.1,202.9c0,4.7-.8,9-2.4,12.9-1.6,3.9-3.9,7.3-6.7,10.1-2.9,2.8-6.2,5.1-10.2,6.7-3.9,1.6-8.2,2.4-12.8,2.4h-37.6c-1,0-1.9-.2-2.8-.5-.9-.4-1.6-.9-2.2-1.5s-1.1-1.4-1.5-2.2c-.4-.9-.5-1.8-.5-2.8v-62.8c0-1,.2-1.9.5-2.7s.9-1.6,1.5-2.2,1.4-1.1,2.2-1.5c.9-.4,1.8-.5,2.8-.5h37.6c4.6,0,8.9.8,12.8,2.4s7.3,3.8,10.2,6.7c2.9,2.8,5.1,6.2,6.7,10.2s2.4,8.2,2.4,12.9v12.5h0ZM314.2,190.4c0-2.7-.4-5.2-1.3-7.4s-2.1-4.2-3.7-5.8c-1.6-1.6-3.5-2.8-5.8-3.7s-4.7-1.3-7.4-1.3h-30.7v48.9h30.7c2.7,0,5.2-.4,7.4-1.3s4.1-2.1,5.8-3.7c1.6-1.6,2.9-3.5,3.7-5.7s1.3-4.7,1.3-7.5v-12.5h0Z"/>
    </g>
    <path class="st0" d="M219.1,201.4h-2.4v2.4c0,2.6-2.1,4.8-4.8,4.8s-4.8-2.1-4.8-4.8v-2.4h-2.4c-2.6,0-4.8-2.1-4.8-4.8s2.1-4.8,4.8-4.8h2.4v-2.4c0-2.6,2.1-4.8,4.8-4.8s4.8,2.1,4.8,4.8v2.4h2.4c2.6,0,4.8,2.1,4.8,4.8s-2.1,4.8-4.8,4.8Z"/>
    <rect class="st0" x="280.5" y="186.3" width="18.5" height="18.5" transform="translate(-53.4 262.1) rotate(-45)"/>
  </g>
</svg>