<svg version="1.2" xmlns="http://www.w3.org/2000/svg" viewBox="27.729999999999993 225.05 444.53999999999996 49.889999999999986" width="446" height="50">
	<title>primary-green</title>
	<style>
		.s0 { fill: #62f098 } 
	</style>
	<g id="Layer 1">
		<path class="s0" d="m182.4 267.2h-22.6q-0.8 0-1.8-0.2-1-0.2-2-0.6-1-0.4-1.9-1.1-0.8-0.7-1.5-1.7-0.7-1-1.1-2.2-0.4-1.3-0.4-2.9v-17q0-0.8 0.2-1.8 0.2-1 0.6-2 0.5-1 1.1-1.8 0.7-0.9 1.7-1.6 1-0.7 2.3-1.1 1.2-0.4 2.8-0.4h22.6v6.2h-22.6q-1.2 0-1.8 0.7-0.7 0.6-0.7 1.9v16.9q0 1.2 0.7 1.8 0.6 0.7 1.8 0.7h22.6v6.3z"/>
		<path class="s0" d="m222.1 267.2h-6.2v-8.4h-22v8.4h-6.2v-17.2q-0.1-3.8 1.3-6.9 1.3-3.2 3.6-5.5 2.3-2.3 5.4-3.6 3.2-1.2 6.9-1.2h14.1q0.6 0 1.2 0.2 0.6 0.2 1 0.7 0.5 0.4 0.7 1 0.2 0.6 0.2 1.2v31.3zm-28.2-14.7h22v-13.5h-11q-0.3 0-1.2 0.1-0.9 0.1-2.2 0.4-1.2 0.3-2.5 1-1.4 0.7-2.5 1.9-1.1 1.3-1.9 3.1-0.7 1.8-0.7 4.5v2.5z"/>
		<path class="s0" d="m262.5 257.1q0 1.8-0.5 3.3-0.4 1.5-1.2 2.6-0.8 1.2-1.8 1.9-1 0.8-2.1 1.3-1.2 0.6-2.3 0.8-1.1 0.2-2.1 0.2h-24.2v-6.2h24.2q1.8 0 2.8-1.1 1-1 1-2.8 0-0.9-0.3-1.6-0.3-0.7-0.8-1.2-0.5-0.6-1.2-0.9-0.7-0.3-1.5-0.3h-14.4q-1.5 0-3.3-0.5-1.7-0.5-3.2-1.7-1.5-1.2-2.5-3.2-1-1.9-1-4.7 0-2.9 1-4.8 1-1.9 2.5-3.1 1.5-1.3 3.2-1.8 1.8-0.5 3.3-0.5h21.3v6.2h-21.3q-1.8 0-2.8 1.1-1 1.1-1 2.9 0 1.7 1 2.8 1 1.1 2.8 1.1h14.4q1 0 2.2 0.2 1.1 0.3 2.2 0.8 1.1 0.5 2.1 1.3 1 0.8 1.8 2 0.8 1.1 1.3 2.6 0.4 1.4 0.4 3.3z"/>
		<path class="s0" d="m274 246.8h21.9v-14h6.3v34.4h-6.3v-14.1h-21.9v14.1h-6.3v-34.4h6.3z"/>
		<path class="s0" d="m343.9 252.8q0 3.2-1.1 5.8-1.1 2.6-3 4.6-1.9 1.9-4.6 3-2.6 1-5.7 1h-16.9q-0.7 0-1.2-0.2-0.6-0.3-1-0.7-0.5-0.4-0.7-1-0.3-0.6-0.2-1.2v-28.2q-0.1-0.6 0.2-1.2 0.2-0.6 0.7-1 0.4-0.5 1-0.7 0.5-0.2 1.2-0.2h16.9q3.1 0 5.7 1 2.7 1.1 4.6 3 1.9 1.9 3 4.6 1.1 2.7 1.1 5.8zm-6.3-5.6q0-1.9-0.5-3.4-0.6-1.5-1.7-2.6-1.1-1-2.6-1.6-1.5-0.6-3.3-0.6h-13.8v22h13.8q1.8 0 3.3-0.6 1.5-0.6 2.6-1.7 1.1-1.1 1.7-2.6 0.5-1.5 0.5-3.3z"/>
		<path class="s0" d="m384.5 244.3q0 2.2-0.5 3.9-0.6 1.7-1.5 2.9-0.9 1.3-2.1 2.2-1.1 1-2.4 1.5-1.3 0.6-2.6 0.9-1.3 0.3-2.5 0.2l13.1 11.3h-9.7l-13-11.3h-4.5v-6.2h14.1q1.2-0.1 2.2-0.5 0.9-0.4 1.6-1.1 0.8-0.6 1.1-1.6 0.4-0.9 0.4-2.2v-3.9q0-0.5-0.1-0.8-0.2-0.3-0.4-0.4-0.2-0.2-0.4-0.2-0.2 0-0.4 0h-20.6v28.2h-6.3v-31.3q0-0.6 0.3-1.2 0.2-0.6 0.6-1 0.4-0.5 1-0.7 0.6-0.3 1.3-0.3h23.7q2.1 0 3.5 0.8 1.5 0.8 2.4 1.9 0.9 1.1 1.3 2.5 0.4 1.3 0.4 2.4v4z"/>
		<path class="s0" d="m397.1 267.2h-6.3v-34.4h6.2z"/>
		<path class="s0" d="m436 267.2h-28.5q-0.7 0-1.2-0.2-0.6-0.2-1-0.7-0.5-0.4-0.7-1-0.2-0.5-0.2-1.2v-31.3h6.2v28.2h25.4z"/>
		<path class="s0" d="m472.3 267.2h-28.5q-0.7 0-1.3-0.2-0.6-0.2-1-0.7-0.4-0.4-0.7-1-0.2-0.5-0.2-1.2v-31.3h6.3v28.2h25.4z"/>
		<path class="s0" d="m73.1 274.9h-32.7q-1.2 0-2.7-0.3-1.4-0.3-2.8-0.9-1.4-0.6-2.7-1.6-1.3-1-2.3-2.4-1-1.4-1.6-3.3-0.6-1.8-0.6-4.2v-24.4q0-1.3 0.3-2.7 0.3-1.5 1-2.9 0.6-1.4 1.6-2.7 1-1.3 2.4-2.3 1.4-1 3.3-1.6 1.8-0.5 4.1-0.5h32.7v9h-32.7q-1.7 0-2.7 0.9-0.9 1-0.9 2.8v24.4q0 1.8 0.9 2.7 1 1 2.7 1h32.7v9z"/>
		<path class="s0" d="m131.4 254.1q0 4.5-1.6 8.3-1.6 3.9-4.4 6.6-2.7 2.8-6.6 4.4-3.8 1.5-8.3 1.5h-24.4q-1 0-1.8-0.3-0.8-0.4-1.4-1-0.6-0.6-1-1.4-0.4-0.8-0.4-1.8v-40.8q0.1-0.9 0.4-1.8 0.3-0.8 1-1.4 0.6-0.6 1.4-1 0.8-0.3 1.8-0.3h24.4q4.5 0 8.3 1.5 3.9 1.6 6.6 4.4 2.8 2.7 4.4 6.6 1.6 3.8 1.6 8.3c0 0 0 8.2 0 8.2zm-9.1-8.2q0.1-2.6-0.8-4.8-0.9-2.2-2.4-3.8-1.6-1.5-3.8-2.4-2.1-0.8-4.8-0.8h-19.9v31.8h19.9q2.7 0 4.8-0.9 2.2-0.8 3.8-2.4 1.5-1.5 2.4-3.7 0.9-2.1 0.8-4.8c0 0 0-8.2 0-8.2z"/>
		<path class="s0" d="m60.6 253.1h-1.6v1.6c0 1.7-1.4 3.1-3.1 3.1-1.7 0-3.1-1.4-3.1-3.1v-1.6h-1.5c-1.7 0-3.1-1.4-3.1-3.1 0-1.7 1.4-3.1 3.1-3.1h1.5v-1.5c0-1.8 1.4-3.1 3.1-3.1 1.7 0 3.1 1.3 3.1 3.1v1.5h1.6c1.7 0 3.1 1.4 3.1 3.1 0 1.7-1.4 3.1-3.1 3.1z"/>
		<path class="s0" d="m98 249.3l8.5-8.6 8.5 8.6-8.5 8.5z"/>
	</g>
</svg>