<?xml version="1.0" encoding="UTF-8"?>
<svg id="Layer_1" data-name="Layer 1" xmlns="http://www.w3.org/2000/svg" viewBox="0 0 500 500">
  <defs>
    <style>
      .cls-1 {
        fill: #040404;
      }
    </style>
  </defs>
  <path class="cls-1" d="M52.78,276.29H18.38c-.88,0-1.83-.1-2.84-.31-1.01-.21-2.02-.53-3.01-.97s-1.94-1.01-2.84-1.71c-.91-.7-1.7-1.54-2.4-2.53-.7-.99-1.25-2.14-1.67-3.45s-.62-2.78-.62-4.42v-25.82c0-.88.1-1.83.31-2.84.21-1.01.53-2.02.97-3.01.44-.99,1.01-1.94,1.72-2.84.71-.9,1.56-1.71,2.55-2.4.99-.7,2.13-1.25,3.43-1.67,1.3-.42,2.76-.62,4.4-.62h34.4v9.53H18.38c-1.25,0-2.2.33-2.86.99s-.99,1.64-.99,2.93v25.74c0,1.22.34,2.17,1.01,2.84.67.67,1.62,1.01,2.84,1.01h34.4v9.53Z"/>
  <path class="cls-1" d="M113.4,276.29h-9.53v-12.91h-33.52v12.91h-9.54v-26.29c0-3.84.66-7.37,1.98-10.6,1.32-3.23,3.15-6,5.5-8.32,2.35-2.32,5.12-4.13,8.33-5.43,3.2-1.3,6.7-1.94,10.49-1.94h21.49c.66,0,1.28.12,1.87.37.59.24,1.1.59,1.54,1.03.44.44.78.95,1.03,1.54s.37,1.21.37,1.87v47.78ZM70.35,253.85h33.52v-20.61h-16.76c-.29,0-.91.04-1.85.13-.94.09-2.03.3-3.26.64-1.24.34-2.54.87-3.91,1.58-1.37.71-2.63,1.69-3.78,2.93s-2.1,2.81-2.84,4.68c-.75,1.87-1.12,4.14-1.12,6.8v3.85Z"/>
  <path class="cls-1" d="M175.01,260.82c0,1.88-.24,3.58-.72,5.08-.48,1.5-1.11,2.83-1.89,3.98-.78,1.15-1.7,2.13-2.75,2.93-1.05.81-2.14,1.47-3.26,1.98-1.12.51-2.27.89-3.43,1.14-1.16.24-2.26.37-3.28.37h-36.78v-9.53h36.78c1.83,0,3.26-.54,4.27-1.61,1.01-1.08,1.52-2.52,1.52-4.33,0-.88-.13-1.69-.4-2.42s-.65-1.37-1.16-1.91c-.5-.54-1.11-.95-1.83-1.25s-1.52-.44-2.4-.44h-21.93c-1.54,0-3.2-.27-4.99-.82-1.79-.55-3.44-1.44-4.97-2.66-1.53-1.22-2.8-2.82-3.81-4.8-1.01-1.98-1.52-4.4-1.52-7.26s.51-5.27,1.52-7.24c1.01-1.97,2.29-3.57,3.81-4.8,1.53-1.23,3.18-2.13,4.97-2.68,1.78-.55,3.45-.82,4.99-.82h32.45v9.53h-32.45c-1.81,0-3.22.55-4.24,1.65-1.01,1.1-1.52,2.56-1.52,4.36s.51,3.28,1.52,4.35c1.01,1.06,2.43,1.6,4.24,1.6h22c1.03.02,2.11.17,3.26.42,1.15.26,2.29.65,3.43,1.19s2.22,1.22,3.25,2.04c1.03.82,1.94,1.8,2.73,2.95s1.42,2.47,1.89,3.96c.46,1.49.7,3.18.7,5.06Z"/>
  <path class="cls-1" d="M192.54,245.2h33.48v-21.49h9.53v52.59h-9.53v-21.49h-33.48v21.49h-9.53v-52.59h9.53v21.49Z"/>
  <path class="cls-1" d="M299.17,254.29c0,3.2-.56,6.15-1.67,8.84-1.11,2.69-2.65,5.01-4.6,6.95-1.96,1.94-4.28,3.47-6.97,4.57-2.69,1.1-5.61,1.65-8.76,1.65h-25.74c-.68,0-1.32-.12-1.91-.37-.59-.24-1.09-.58-1.52-1.01-.43-.43-.76-.94-1.01-1.52s-.37-1.22-.37-1.91v-42.98c0-.66.12-1.28.37-1.87s.58-1.1,1.01-1.54c.43-.44.94-.78,1.52-1.03.59-.24,1.22-.37,1.91-.37h25.74c3.15,0,6.07.55,8.76,1.65s5.01,2.62,6.97,4.57c1.96,1.94,3.49,4.27,4.6,6.97,1.11,2.7,1.67,5.64,1.67,8.82v8.58ZM289.64,245.71c0-1.86-.3-3.56-.9-5.1-.6-1.54-1.45-2.85-2.55-3.94-1.1-1.09-2.42-1.93-3.94-2.53-1.53-.6-3.22-.9-5.08-.9h-21.01v33.52h21.01c1.86,0,3.55-.3,5.08-.9,1.53-.6,2.84-1.44,3.94-2.53,1.1-1.09,1.95-2.4,2.55-3.92.6-1.53.9-3.23.9-5.12v-8.58Z"/>
  <path class="cls-1" d="M361.08,241.38c0,2.18-.27,4.12-.81,5.83s-1.26,3.22-2.18,4.53c-.92,1.31-1.97,2.43-3.17,3.36-1.2.93-2.45,1.69-3.76,2.29-1.31.6-2.63,1.03-3.96,1.3-1.33.27-2.59.4-3.76.4l19.91,17.2h-14.74l-19.88-17.2h-6.86v-9.53h21.56c1.2-.1,2.29-.35,3.28-.75.99-.4,1.85-.95,2.57-1.63.72-.68,1.28-1.51,1.67-2.48.39-.97.59-2.07.59-3.32v-6.01c0-.54-.07-.95-.2-1.23-.14-.28-.31-.49-.51-.62-.21-.13-.43-.21-.66-.24-.23-.02-.45-.04-.64-.04h-31.46v43.05h-9.53v-47.78c0-.66.12-1.28.37-1.87.24-.59.58-1.1,1.01-1.54s.94-.78,1.52-1.03c.59-.24,1.22-.37,1.91-.37h36.2c2.13,0,3.92.38,5.39,1.15,1.47.77,2.66,1.74,3.58,2.9.92,1.16,1.58,2.41,1.98,3.76.4,1.35.6,2.6.6,3.78v6.09Z"/>
  <path class="cls-1" d="M380.26,276.29h-9.53v-52.59h9.53v52.59Z"/>
  <path class="cls-1" d="M439.7,276.29h-43.49c-.68,0-1.32-.12-1.91-.37-.59-.24-1.09-.58-1.52-1.01-.43-.43-.76-.94-1.01-1.52s-.37-1.22-.37-1.91v-47.78h9.53v43.05h38.76v9.53Z"/>
  <path class="cls-1" d="M495,276.29h-43.49c-.68,0-1.32-.12-1.91-.37-.59-.24-1.09-.58-1.52-1.01-.43-.43-.76-.94-1.01-1.52-.24-.59-.37-1.22-.37-1.91v-47.78h9.53v43.05h38.76v9.53Z"/>
</svg>